<svg xmlns="http://www.w3.org/2000/svg">
		<symbol viewBox="0 0 20 20" id="github">
			<path fill-rule="evenodd" d="M10 0c5.523 0 10 4.59 10 10.253 0 4.529-2.862 8.371-6.833 9.728-.507.101-.687-.219-.687-.492 0-.338.012-1.442.012-2.814 0-.956-.32-1.58-.679-1.898 2.227-.254 4.567-1.121 4.567-5.059 0-1.12-.388-2.034-1.03-2.752.104-.259.447-1.302-.098-2.714 0 0-.838-.275-2.747 1.051A9.396 9.396 0 0 0 10 4.958a9.375 9.375 0 0 0-2.503.345C5.586 3.977 4.746 4.252 4.746 4.252c-.543 1.412-.2 2.455-.097 2.714-.639.718-1.03 1.632-1.03 2.752 0 3.928 2.335 4.808 4.556 5.067-.286.256-.545.708-.635 1.371-.57.262-2.018.715-2.91-.852 0 0-.529-.985-1.533-1.057 0 0-.975-.013-.068.623 0 0 .655.315 1.11 1.5 0 0 .587 1.83 3.369 1.21.005.857.014 1.665.014 1.909 0 .271-.184.588-.683.493C2.865 18.627 0 14.783 0 10.253 0 4.59 4.478 0 10 0"/>
		</symbol>
		<symbol viewBox="-143 145 512 512" id="linkedin">
			<path d="M113 145c-141.4 0-256 114.6-256 256s114.6 256 256 256 256-114.6 256-256-114.6-256-256-256zM41.4 508.1H-8.5V348.4h49.9v159.7zM15.1 328.4h-.4c-18.1 0-29.8-12.2-29.8-27.7 0-15.8 12.1-27.7 30.5-27.7s29.7 11.9 30.1 27.7c.1 15.4-11.6 27.7-30.4 27.7zM241 508.1h-56.6v-82.6c0-21.6-8.8-36.4-28.3-36.4-14.9 0-23.2 10-27 19.6-1.4 3.4-1.2 8.2-1.2 13.1v86.3H71.8s.7-146.4 0-159.7h56.1v25.1c3.3-11 21.2-26.6 49.8-26.6 35.5 0 63.3 23 63.3 72.4v88.8z"/>
		</symbol>
		<symbol viewBox="0 0 32 32" id="telegram">
			<path d="M22.122 10.04h.022c.209 0 .403.065.562.177l-.003-.002a.632.632 0 0 1 .213.403v.003a2.553 2.553 0 0 1 .024.598v-.009c-.225 2.369-1.201 8.114-1.697 10.766-.21 1.123-.623 1.499-1.023 1.535-.869.081-1.529-.574-2.371-1.126-1.318-.865-2.063-1.403-3.342-2.246-1.479-.973-.52-1.51.322-2.384.221-.23 4.052-3.715 4.127-4.031a.308.308 0 0 0-.07-.265.34.34 0 0 0-.185-.053.364.364 0 0 0-.128.024l.002-.001q-.198.045-6.316 4.174a2.805 2.805 0 0 1-1.619.599h-.006a10.542 10.542 0 0 1-2.401-.573l.074.024c-.938-.306-1.683-.467-1.619-.985q.051-.404 1.114-.827 6.548-2.853 8.733-3.761a22.627 22.627 0 0 1 5.429-2.01l.157-.031zM15.93 1.025C7.628 1.045.905 7.78.905 16.085c0 8.317 6.742 15.06 15.06 15.06s15.06-6.742 15.06-15.06c0-8.305-6.723-15.04-15.023-15.06H15.93z" />
		</symbol>
		<symbol viewBox="0 0 24 24" id="viber">
            <path d="M13 4a1 1 0 1 0 0 2c1.273 0 2.256.42 2.918 1.082C16.58 7.744 17 8.727 17 10a1 1 0 1 0 2 0c0-1.727-.58-3.244-1.668-4.332C16.244 4.58 14.727 4 13 4ZM5.014 8.006c.114-.904 1.289-2.132 2.22-1.996V6.01c.779.148 1.418 1.32 1.84 2.093.069.127.132.244.19.343.286.509.1 1.025-.167 1.243L9 9.765c-.356.283-.819.65-.71 1.018C8.5 11.5 11 14 12.23 14.711c.376.217.669-.205.92-.567.059-.086.116-.168.17-.237.21-.28.727-.447 1.235-.171.759.442 1.474.956 2.135 1.534.33.276.408.684.179 1.115-.403.76-1.569 1.76-2.415 1.557C12.976 17.587 7 15.27 5.08 8.558c-.1-.296-.084-.42-.07-.528l.004-.024Z"/>
			<path d="M13 7a1 1 0 1 0 0 2c.175 0 .433.097.668.332.235.235.332.493.332.668a1 1 0 1 0 2 0c0-.825-.402-1.567-.918-2.082C14.567 7.403 13.825 7 13 7Z"/>
			<path d="M7.517 23.831c.029.016.058.03.088.043.543.233 1.213-.288 2.552-1.33L11.5 21.5c2.688.089 5.014-.264 6.812-.893a7 7 0 0 0 4.295-4.295c.97-2.771.97-7.853 0-10.624a7 7 0 0 0-4.295-4.295c-3.202-1.12-9.482-1.1-12.624 0a7 7 0 0 0-4.295 4.295c-.97 2.77-.97 7.853 0 10.624a7 7 0 0 0 4.295 4.295c.395.138.836.29 1.312.393 0 1.697 0 2.546.517 2.831ZM9 20.911v-1.12a.498.498 0 0 0-.394-.488c-.762-.163-1.52-.325-2.257-.584a5 5 0 0 1-3.068-3.068c-.382-1.091-.615-2.806-.615-4.651 0-1.845.233-3.56.615-4.652A5 5 0 0 1 6.349 3.28c1.267-.443 3.368-.717 5.63-.72 2.263-.002 4.377.267 5.672.72a5 5 0 0 1 3.068 3.068c.382 1.092.615 2.807.615 4.652 0 1.845-.233 3.56-.615 4.651a5 5 0 0 1-3.068 3.068c-2.131.746-4.392.83-6.627.764a.503.503 0 0 0-.324.105L9 20.911Z" clip-rule="evenodd"/>
		</symbol>
		<symbol viewBox="0 0 24 24" id="facebook">
			 <path d="M12 2.04c-5.5 0-10 4.49-10 10.02 0 5 3.66 9.15 8.44 9.9v-7H7.9v-2.9h2.54V9.85c0-2.51 1.49-3.89 3.78-3.89 1.09 0 2.23.19 2.23.19v2.47h-1.26c-1.24 0-1.63.77-1.63 1.56v1.88h2.78l-.45 2.9h-2.33v7a10 10 0 0 0 8.44-9.9c0-5.53-4.5-10.02-10-10.02Z"/>
		</symbol>
		<symbol viewBox="0 0 24 24" id="whatsapp">
			  <path d="M6.014 8.006c.114-.904 1.289-2.132 2.22-1.996V6.01c.907.172 1.625 1.734 2.03 2.436.286.509.1 1.025-.167 1.243-.361.29-.926.692-.808 1.095C9.5 11.5 12 14 13.23 14.711c.466.269.804-.44 1.092-.804.21-.28.726-.447 1.234-.171.759.442 1.474.956 2.135 1.534.33.276.408.684.179 1.115-.403.76-1.569 1.76-2.415 1.557C13.976 17.587 8 15.27 6.08 8.558c-.108-.318-.08-.438-.066-.552Z"/>
			  <path fill-rule="evenodd" d="M12 23c-1.224 0-1.9-.131-3-.5l-2.106 1.053A2 2 0 0 1 4 21.763V19.5c-2.153-2.008-3-4.323-3-7.5C1 5.925 5.925 1 12 1s11 4.925 11 11-4.925 11-11 11Zm-6-4.37-.636-.593C3.691 16.477 3 14.733 3 12a9 9 0 1 1 9 9c-.986 0-1.448-.089-2.364-.396l-.788-.264L6 21.764V18.63Z" clip-rule="evenodd"/>
		</symbol>
	</svg>